<mxfile host="app.diagrams.net" modified="2023-11-03T08:26:44.640Z" agent="Mozilla/5.0 (Windows NT 10.0; Win64; x64) AppleWebKit/537.36 (KHTML, like Gecko) Chrome/116.0.0.0 Safari/537.36 OPR/102.0.0.0" etag="o3s5wLTnZz4EAEraC8G9" version="22.0.8" type="device">
  <diagram name="Page-1" id="0eEb5xW0O8oonZ0l-c_o">
    <mxGraphModel dx="1508" dy="805" grid="1" gridSize="10" guides="1" tooltips="1" connect="1" arrows="1" fold="1" page="1" pageScale="1" pageWidth="850" pageHeight="1100" math="0" shadow="0">
      <root>
        <mxCell id="0" />
        <mxCell id="1" parent="0" />
        <mxCell id="L3XYujODUy7otGfd9whB-1" value="mulai" style="strokeWidth=2;html=1;shape=mxgraph.flowchart.terminator;whiteSpace=wrap;" vertex="1" parent="1">
          <mxGeometry x="375" y="10" width="100" height="60" as="geometry" />
        </mxCell>
        <mxCell id="L3XYujODUy7otGfd9whB-22" style="edgeStyle=orthogonalEdgeStyle;rounded=0;orthogonalLoop=1;jettySize=auto;html=1;entryX=0;entryY=0.5;entryDx=0;entryDy=0;" edge="1" parent="1" source="L3XYujODUy7otGfd9whB-5" target="L3XYujODUy7otGfd9whB-6">
          <mxGeometry relative="1" as="geometry" />
        </mxCell>
        <mxCell id="L3XYujODUy7otGfd9whB-5" value="sudah punya akun?" style="strokeWidth=2;html=1;shape=mxgraph.flowchart.decision;whiteSpace=wrap;" vertex="1" parent="1">
          <mxGeometry x="375" y="160" width="100" height="100" as="geometry" />
        </mxCell>
        <mxCell id="L3XYujODUy7otGfd9whB-23" style="edgeStyle=orthogonalEdgeStyle;rounded=0;orthogonalLoop=1;jettySize=auto;html=1;" edge="1" parent="1" source="L3XYujODUy7otGfd9whB-6">
          <mxGeometry relative="1" as="geometry">
            <mxPoint x="635" y="290" as="targetPoint" />
          </mxGeometry>
        </mxCell>
        <mxCell id="L3XYujODUy7otGfd9whB-6" value="masukkan email &amp;amp; password" style="rounded=1;whiteSpace=wrap;html=1;absoluteArcSize=1;arcSize=14;strokeWidth=2;" vertex="1" parent="1">
          <mxGeometry x="560" y="160" width="150" height="100" as="geometry" />
        </mxCell>
        <mxCell id="L3XYujODUy7otGfd9whB-8" value="daftar akun" style="strokeWidth=2;html=1;shape=mxgraph.flowchart.decision;whiteSpace=wrap;" vertex="1" parent="1">
          <mxGeometry x="230" y="160" width="100" height="100" as="geometry" />
        </mxCell>
        <mxCell id="L3XYujODUy7otGfd9whB-35" style="edgeStyle=orthogonalEdgeStyle;rounded=0;orthogonalLoop=1;jettySize=auto;html=1;" edge="1" parent="1" source="L3XYujODUy7otGfd9whB-12" target="L3XYujODUy7otGfd9whB-15">
          <mxGeometry relative="1" as="geometry" />
        </mxCell>
        <mxCell id="L3XYujODUy7otGfd9whB-12" value="lengkapi registrasi pendataran" style="rounded=1;whiteSpace=wrap;html=1;absoluteArcSize=1;arcSize=14;strokeWidth=2;" vertex="1" parent="1">
          <mxGeometry x="10" y="150" width="180" height="100" as="geometry" />
        </mxCell>
        <mxCell id="L3XYujODUy7otGfd9whB-15" value="input email, username, password" style="rounded=1;whiteSpace=wrap;html=1;absoluteArcSize=1;arcSize=14;strokeWidth=2;" vertex="1" parent="1">
          <mxGeometry x="10" y="300" width="180" height="100" as="geometry" />
        </mxCell>
        <mxCell id="L3XYujODUy7otGfd9whB-37" style="edgeStyle=orthogonalEdgeStyle;rounded=0;orthogonalLoop=1;jettySize=auto;html=1;entryX=0.5;entryY=0;entryDx=0;entryDy=0;" edge="1" parent="1" source="L3XYujODUy7otGfd9whB-16">
          <mxGeometry relative="1" as="geometry">
            <mxPoint x="425" y="720" as="targetPoint" />
          </mxGeometry>
        </mxCell>
        <mxCell id="L3XYujODUy7otGfd9whB-16" value="Login berhasil" style="rounded=1;whiteSpace=wrap;html=1;absoluteArcSize=1;arcSize=14;strokeWidth=2;" vertex="1" parent="1">
          <mxGeometry x="335" y="550" width="180" height="100" as="geometry" />
        </mxCell>
        <mxCell id="L3XYujODUy7otGfd9whB-24" style="edgeStyle=orthogonalEdgeStyle;rounded=0;orthogonalLoop=1;jettySize=auto;html=1;" edge="1" parent="1" source="L3XYujODUy7otGfd9whB-17" target="L3XYujODUy7otGfd9whB-18">
          <mxGeometry relative="1" as="geometry" />
        </mxCell>
        <mxCell id="L3XYujODUy7otGfd9whB-31" style="edgeStyle=orthogonalEdgeStyle;rounded=0;orthogonalLoop=1;jettySize=auto;html=1;entryX=1;entryY=0.5;entryDx=0;entryDy=0;" edge="1" parent="1" source="L3XYujODUy7otGfd9whB-17" target="L3XYujODUy7otGfd9whB-16">
          <mxGeometry relative="1" as="geometry">
            <mxPoint x="635" y="610" as="targetPoint" />
            <Array as="points">
              <mxPoint x="635" y="600" />
            </Array>
          </mxGeometry>
        </mxCell>
        <mxCell id="L3XYujODUy7otGfd9whB-17" value="valid user" style="strokeWidth=2;html=1;shape=mxgraph.flowchart.decision;whiteSpace=wrap;" vertex="1" parent="1">
          <mxGeometry x="585" y="290" width="100" height="100" as="geometry" />
        </mxCell>
        <mxCell id="L3XYujODUy7otGfd9whB-18" value="login failed" style="rounded=1;whiteSpace=wrap;html=1;absoluteArcSize=1;arcSize=14;strokeWidth=2;" vertex="1" parent="1">
          <mxGeometry x="740" y="290" width="100" height="100" as="geometry" />
        </mxCell>
        <mxCell id="L3XYujODUy7otGfd9whB-26" style="edgeStyle=orthogonalEdgeStyle;rounded=0;orthogonalLoop=1;jettySize=auto;html=1;entryX=0.5;entryY=0;entryDx=0;entryDy=0;" edge="1" parent="1" source="L3XYujODUy7otGfd9whB-19" target="L3XYujODUy7otGfd9whB-20">
          <mxGeometry relative="1" as="geometry" />
        </mxCell>
        <mxCell id="L3XYujODUy7otGfd9whB-19" value="forgot passwprd" style="strokeWidth=2;html=1;shape=mxgraph.flowchart.decision;whiteSpace=wrap;" vertex="1" parent="1">
          <mxGeometry x="740" y="430" width="100" height="100" as="geometry" />
        </mxCell>
        <mxCell id="L3XYujODUy7otGfd9whB-27" style="edgeStyle=orthogonalEdgeStyle;rounded=0;orthogonalLoop=1;jettySize=auto;html=1;entryX=1;entryY=0.5;entryDx=0;entryDy=0;" edge="1" parent="1" source="L3XYujODUy7otGfd9whB-20" target="L3XYujODUy7otGfd9whB-6">
          <mxGeometry relative="1" as="geometry">
            <mxPoint x="980" y="180" as="targetPoint" />
            <Array as="points">
              <mxPoint x="990" y="610" />
              <mxPoint x="990" y="210" />
            </Array>
          </mxGeometry>
        </mxCell>
        <mxCell id="L3XYujODUy7otGfd9whB-20" value="reset password" style="rounded=1;whiteSpace=wrap;html=1;absoluteArcSize=1;arcSize=14;strokeWidth=2;" vertex="1" parent="1">
          <mxGeometry x="740" y="560" width="100" height="100" as="geometry" />
        </mxCell>
        <mxCell id="L3XYujODUy7otGfd9whB-21" style="edgeStyle=orthogonalEdgeStyle;rounded=0;orthogonalLoop=1;jettySize=auto;html=1;entryX=0.5;entryY=0;entryDx=0;entryDy=0;entryPerimeter=0;" edge="1" parent="1" source="L3XYujODUy7otGfd9whB-1" target="L3XYujODUy7otGfd9whB-5">
          <mxGeometry relative="1" as="geometry" />
        </mxCell>
        <mxCell id="L3XYujODUy7otGfd9whB-25" style="edgeStyle=orthogonalEdgeStyle;rounded=0;orthogonalLoop=1;jettySize=auto;html=1;entryX=0.5;entryY=0;entryDx=0;entryDy=0;entryPerimeter=0;" edge="1" parent="1" source="L3XYujODUy7otGfd9whB-18" target="L3XYujODUy7otGfd9whB-19">
          <mxGeometry relative="1" as="geometry" />
        </mxCell>
        <mxCell id="L3XYujODUy7otGfd9whB-30" style="edgeStyle=orthogonalEdgeStyle;rounded=0;orthogonalLoop=1;jettySize=auto;html=1;entryX=0.007;entryY=0.644;entryDx=0;entryDy=0;entryPerimeter=0;" edge="1" parent="1" source="L3XYujODUy7otGfd9whB-15" target="L3XYujODUy7otGfd9whB-16">
          <mxGeometry relative="1" as="geometry">
            <Array as="points">
              <mxPoint x="100" y="614" />
            </Array>
          </mxGeometry>
        </mxCell>
        <mxCell id="L3XYujODUy7otGfd9whB-32" style="edgeStyle=orthogonalEdgeStyle;rounded=0;orthogonalLoop=1;jettySize=auto;html=1;entryX=1;entryY=0.5;entryDx=0;entryDy=0;entryPerimeter=0;" edge="1" parent="1" source="L3XYujODUy7otGfd9whB-5" target="L3XYujODUy7otGfd9whB-8">
          <mxGeometry relative="1" as="geometry" />
        </mxCell>
        <mxCell id="L3XYujODUy7otGfd9whB-34" style="edgeStyle=orthogonalEdgeStyle;rounded=0;orthogonalLoop=1;jettySize=auto;html=1;entryX=0.995;entryY=0.601;entryDx=0;entryDy=0;entryPerimeter=0;" edge="1" parent="1" source="L3XYujODUy7otGfd9whB-8" target="L3XYujODUy7otGfd9whB-12">
          <mxGeometry relative="1" as="geometry" />
        </mxCell>
        <mxCell id="L3XYujODUy7otGfd9whB-41" style="edgeStyle=orthogonalEdgeStyle;rounded=0;orthogonalLoop=1;jettySize=auto;html=1;entryX=0;entryY=0.5;entryDx=0;entryDy=0;" edge="1" parent="1" source="L3XYujODUy7otGfd9whB-38" target="L3XYujODUy7otGfd9whB-40">
          <mxGeometry relative="1" as="geometry" />
        </mxCell>
        <mxCell id="L3XYujODUy7otGfd9whB-42" style="edgeStyle=orthogonalEdgeStyle;rounded=0;orthogonalLoop=1;jettySize=auto;html=1;entryX=1;entryY=0.5;entryDx=0;entryDy=0;" edge="1" parent="1" source="L3XYujODUy7otGfd9whB-38" target="L3XYujODUy7otGfd9whB-39">
          <mxGeometry relative="1" as="geometry" />
        </mxCell>
        <mxCell id="L3XYujODUy7otGfd9whB-38" value="password &amp;amp; username sesuai user" style="strokeWidth=2;html=1;shape=mxgraph.flowchart.decision;whiteSpace=wrap;" vertex="1" parent="1">
          <mxGeometry x="373" y="720" width="105" height="110" as="geometry" />
        </mxCell>
        <mxCell id="L3XYujODUy7otGfd9whB-39" value="user" style="rounded=1;whiteSpace=wrap;html=1;absoluteArcSize=1;arcSize=14;strokeWidth=2;" vertex="1" parent="1">
          <mxGeometry x="220" y="725" width="100" height="100" as="geometry" />
        </mxCell>
        <mxCell id="L3XYujODUy7otGfd9whB-40" value="menu admin" style="rounded=1;whiteSpace=wrap;html=1;absoluteArcSize=1;arcSize=14;strokeWidth=2;" vertex="1" parent="1">
          <mxGeometry x="530" y="725" width="100" height="100" as="geometry" />
        </mxCell>
        <mxCell id="L3XYujODUy7otGfd9whB-43" value="ya" style="text;strokeColor=none;align=center;fillColor=none;html=1;verticalAlign=middle;whiteSpace=wrap;rounded=0;" vertex="1" parent="1">
          <mxGeometry x="320" y="740" width="60" height="30" as="geometry" />
        </mxCell>
        <mxCell id="L3XYujODUy7otGfd9whB-44" value="tidak" style="text;html=1;align=center;verticalAlign=middle;resizable=0;points=[];autosize=1;strokeColor=none;fillColor=none;" vertex="1" parent="1">
          <mxGeometry x="475" y="740" width="50" height="30" as="geometry" />
        </mxCell>
        <mxCell id="L3XYujODUy7otGfd9whB-45" value="heheeeeeeeeeeeeeeeeee" style="text;html=1;align=center;verticalAlign=middle;resizable=0;points=[];autosize=1;strokeColor=none;fillColor=none;" vertex="1" parent="1">
          <mxGeometry x="340" y="868" width="160" height="30" as="geometry" />
        </mxCell>
      </root>
    </mxGraphModel>
  </diagram>
</mxfile>
